<mxfile host="app.diagrams.net" modified="2023-05-18T10:33:06.874Z" agent="Mozilla/5.0 (Windows NT 10.0; Win64; x64) AppleWebKit/537.36 (KHTML, like Gecko) Chrome/113.0.0.0 Safari/537.36" etag="8yfdnp_CKI3CXq31NJsd" version="21.3.2" type="github">
  <diagram name="Page-1" id="68JO6MREXEzeNU68vQrC">
    <mxGraphModel dx="1839" dy="599" grid="1" gridSize="10" guides="1" tooltips="1" connect="1" arrows="1" fold="1" page="1" pageScale="1" pageWidth="850" pageHeight="1100" math="0" shadow="0">
      <root>
        <mxCell id="0" />
        <mxCell id="1" parent="0" />
        <mxCell id="IC8Se40u6HLO76EEBxMK-10" style="edgeStyle=orthogonalEdgeStyle;rounded=0;orthogonalLoop=1;jettySize=auto;html=1;entryX=1;entryY=0.5;entryDx=0;entryDy=0;" parent="1" source="IC8Se40u6HLO76EEBxMK-3" target="IC8Se40u6HLO76EEBxMK-6" edge="1">
          <mxGeometry relative="1" as="geometry">
            <Array as="points">
              <mxPoint x="620" y="440" />
            </Array>
          </mxGeometry>
        </mxCell>
        <mxCell id="IC8Se40u6HLO76EEBxMK-3" value="&lt;font style=&quot;font-size: 20px;&quot;&gt;机器人终端&lt;/font&gt;" style="rounded=1;whiteSpace=wrap;html=1;fillColor=#ffe6cc;strokeColor=#d79b00;sketch=1;curveFitting=1;jiggle=2;" parent="1" vertex="1">
          <mxGeometry x="560" y="300" width="120" height="60" as="geometry" />
        </mxCell>
        <mxCell id="IC8Se40u6HLO76EEBxMK-9" value="" style="edgeStyle=orthogonalEdgeStyle;rounded=0;orthogonalLoop=1;jettySize=auto;html=1;" parent="1" source="IC8Se40u6HLO76EEBxMK-4" target="IC8Se40u6HLO76EEBxMK-5" edge="1">
          <mxGeometry relative="1" as="geometry" />
        </mxCell>
        <mxCell id="IC8Se40u6HLO76EEBxMK-4" value="&lt;font style=&quot;font-size: 20px;&quot;&gt;用户语言指令&lt;/font&gt;" style="rounded=1;whiteSpace=wrap;html=1;fillColor=#ffe6cc;strokeColor=#d79b00;sketch=1;curveFitting=1;jiggle=2;" parent="1" vertex="1">
          <mxGeometry x="180" y="300" width="140" height="60" as="geometry" />
        </mxCell>
        <mxCell id="IC8Se40u6HLO76EEBxMK-8" value="" style="edgeStyle=orthogonalEdgeStyle;rounded=0;orthogonalLoop=1;jettySize=auto;html=1;" parent="1" source="IC8Se40u6HLO76EEBxMK-5" target="IC8Se40u6HLO76EEBxMK-3" edge="1">
          <mxGeometry relative="1" as="geometry" />
        </mxCell>
        <mxCell id="IC8Se40u6HLO76EEBxMK-5" value="&lt;font style=&quot;font-size: 20px;&quot;&gt;多模态大模型&lt;/font&gt;" style="rounded=1;whiteSpace=wrap;html=1;fillColor=#ffe6cc;strokeColor=#d79b00;sketch=1;curveFitting=1;jiggle=2;" parent="1" vertex="1">
          <mxGeometry x="370" y="300" width="140" height="60" as="geometry" />
        </mxCell>
        <mxCell id="IC8Se40u6HLO76EEBxMK-7" value="" style="edgeStyle=orthogonalEdgeStyle;rounded=0;orthogonalLoop=1;jettySize=auto;html=1;" parent="1" source="IC8Se40u6HLO76EEBxMK-6" target="IC8Se40u6HLO76EEBxMK-5" edge="1">
          <mxGeometry relative="1" as="geometry" />
        </mxCell>
        <mxCell id="IC8Se40u6HLO76EEBxMK-6" value="&lt;font style=&quot;font-size: 20px;&quot;&gt;多模态感知数据&lt;/font&gt;" style="rounded=1;whiteSpace=wrap;html=1;fillColor=#ffe6cc;strokeColor=#d79b00;glass=0;shadow=0;sketch=1;curveFitting=1;jiggle=2;" parent="1" vertex="1">
          <mxGeometry x="360" y="410" width="160" height="60" as="geometry" />
        </mxCell>
        <mxCell id="IC8Se40u6HLO76EEBxMK-21" value="" style="edgeStyle=orthogonalEdgeStyle;rounded=0;orthogonalLoop=1;jettySize=auto;html=1;" parent="1" source="IC8Se40u6HLO76EEBxMK-14" target="IC8Se40u6HLO76EEBxMK-19" edge="1">
          <mxGeometry relative="1" as="geometry" />
        </mxCell>
        <mxCell id="IC8Se40u6HLO76EEBxMK-22" style="edgeStyle=orthogonalEdgeStyle;rounded=0;orthogonalLoop=1;jettySize=auto;html=1;entryX=0;entryY=0.5;entryDx=0;entryDy=0;" parent="1" source="IC8Se40u6HLO76EEBxMK-14" target="IC8Se40u6HLO76EEBxMK-20" edge="1">
          <mxGeometry relative="1" as="geometry" />
        </mxCell>
        <mxCell id="IC8Se40u6HLO76EEBxMK-23" style="edgeStyle=orthogonalEdgeStyle;rounded=0;orthogonalLoop=1;jettySize=auto;html=1;entryX=0;entryY=0.5;entryDx=0;entryDy=0;" parent="1" source="IC8Se40u6HLO76EEBxMK-14" target="IC8Se40u6HLO76EEBxMK-16" edge="1">
          <mxGeometry relative="1" as="geometry" />
        </mxCell>
        <mxCell id="IC8Se40u6HLO76EEBxMK-14" value="&lt;font style=&quot;font-size: 20px;&quot;&gt;Observations&lt;/font&gt;" style="rounded=1;whiteSpace=wrap;html=1;fillColor=#ffe6cc;strokeColor=#d79b00;sketch=1;curveFitting=1;jiggle=2;" parent="1" vertex="1">
          <mxGeometry x="210" y="640" width="140" height="60" as="geometry" />
        </mxCell>
        <mxCell id="IC8Se40u6HLO76EEBxMK-29" value="" style="edgeStyle=orthogonalEdgeStyle;rounded=0;orthogonalLoop=1;jettySize=auto;html=1;" parent="1" source="IC8Se40u6HLO76EEBxMK-16" target="IC8Se40u6HLO76EEBxMK-28" edge="1">
          <mxGeometry relative="1" as="geometry" />
        </mxCell>
        <mxCell id="IC8Se40u6HLO76EEBxMK-16" value="&lt;font style=&quot;font-size: 20px;&quot;&gt;Objects&lt;/font&gt;" style="rounded=1;whiteSpace=wrap;html=1;fillColor=#ffe6cc;strokeColor=#d79b00;sketch=1;curveFitting=1;jiggle=2;" parent="1" vertex="1">
          <mxGeometry x="410" y="720" width="140" height="60" as="geometry" />
        </mxCell>
        <mxCell id="IC8Se40u6HLO76EEBxMK-30" value="" style="edgeStyle=orthogonalEdgeStyle;rounded=0;orthogonalLoop=1;jettySize=auto;html=1;" parent="1" source="IC8Se40u6HLO76EEBxMK-19" target="IC8Se40u6HLO76EEBxMK-27" edge="1">
          <mxGeometry relative="1" as="geometry" />
        </mxCell>
        <mxCell id="IC8Se40u6HLO76EEBxMK-19" value="&lt;font style=&quot;font-size: 20px;&quot;&gt;Images&lt;/font&gt;" style="rounded=1;whiteSpace=wrap;html=1;fillColor=#ffe6cc;strokeColor=#d79b00;sketch=1;curveFitting=1;jiggle=2;" parent="1" vertex="1">
          <mxGeometry x="410" y="640" width="140" height="60" as="geometry" />
        </mxCell>
        <mxCell id="IC8Se40u6HLO76EEBxMK-31" value="" style="edgeStyle=orthogonalEdgeStyle;rounded=0;orthogonalLoop=1;jettySize=auto;html=1;" parent="1" source="IC8Se40u6HLO76EEBxMK-20" target="IC8Se40u6HLO76EEBxMK-26" edge="1">
          <mxGeometry relative="1" as="geometry" />
        </mxCell>
        <mxCell id="IC8Se40u6HLO76EEBxMK-20" value="&lt;font style=&quot;font-size: 20px;&quot;&gt;States (pose, color, size)&lt;/font&gt;" style="rounded=1;whiteSpace=wrap;html=1;fillColor=#ffe6cc;strokeColor=#d79b00;sketch=1;curveFitting=1;jiggle=2;" parent="1" vertex="1">
          <mxGeometry x="410" y="560" width="140" height="60" as="geometry" />
        </mxCell>
        <mxCell id="IC8Se40u6HLO76EEBxMK-36" value="" style="edgeStyle=orthogonalEdgeStyle;rounded=0;orthogonalLoop=1;jettySize=auto;html=1;" parent="1" source="IC8Se40u6HLO76EEBxMK-24" target="IC8Se40u6HLO76EEBxMK-35" edge="1">
          <mxGeometry relative="1" as="geometry" />
        </mxCell>
        <mxCell id="IC8Se40u6HLO76EEBxMK-24" value="&lt;font style=&quot;font-size: 20px;&quot;&gt;Tokens&lt;/font&gt;" style="rounded=1;whiteSpace=wrap;html=1;fillColor=#ffe6cc;strokeColor=#d79b00;sketch=1;curveFitting=1;jiggle=2;" parent="1" vertex="1">
          <mxGeometry x="750" y="560" width="80" height="280" as="geometry" />
        </mxCell>
        <mxCell id="IC8Se40u6HLO76EEBxMK-32" value="" style="edgeStyle=orthogonalEdgeStyle;rounded=0;orthogonalLoop=1;jettySize=auto;html=1;" parent="1" source="IC8Se40u6HLO76EEBxMK-26" target="IC8Se40u6HLO76EEBxMK-24" edge="1">
          <mxGeometry relative="1" as="geometry" />
        </mxCell>
        <mxCell id="IC8Se40u6HLO76EEBxMK-26" value="&lt;font style=&quot;font-size: 20px;&quot;&gt;MLP&lt;/font&gt;" style="rounded=1;whiteSpace=wrap;html=1;fillColor=#dae8fc;strokeColor=#6c8ebf;sketch=1;curveFitting=1;jiggle=2;" parent="1" vertex="1">
          <mxGeometry x="590" y="560" width="80" height="60" as="geometry" />
        </mxCell>
        <mxCell id="IC8Se40u6HLO76EEBxMK-33" value="" style="edgeStyle=orthogonalEdgeStyle;rounded=0;orthogonalLoop=1;jettySize=auto;html=1;" parent="1" source="IC8Se40u6HLO76EEBxMK-27" target="IC8Se40u6HLO76EEBxMK-24" edge="1">
          <mxGeometry relative="1" as="geometry" />
        </mxCell>
        <mxCell id="IC8Se40u6HLO76EEBxMK-27" value="&lt;span style=&quot;font-size: 20px;&quot;&gt;ViT&lt;/span&gt;" style="rounded=1;whiteSpace=wrap;html=1;fillColor=#dae8fc;strokeColor=#6c8ebf;sketch=1;curveFitting=1;jiggle=2;" parent="1" vertex="1">
          <mxGeometry x="590" y="640" width="80" height="60" as="geometry" />
        </mxCell>
        <mxCell id="IC8Se40u6HLO76EEBxMK-34" value="" style="edgeStyle=orthogonalEdgeStyle;rounded=0;orthogonalLoop=1;jettySize=auto;html=1;" parent="1" source="IC8Se40u6HLO76EEBxMK-28" target="IC8Se40u6HLO76EEBxMK-24" edge="1">
          <mxGeometry relative="1" as="geometry" />
        </mxCell>
        <mxCell id="IC8Se40u6HLO76EEBxMK-28" value="&lt;span style=&quot;font-size: 20px;&quot;&gt;OSRT&lt;/span&gt;" style="rounded=1;whiteSpace=wrap;html=1;fillColor=#dae8fc;strokeColor=#6c8ebf;sketch=1;curveFitting=1;jiggle=2;" parent="1" vertex="1">
          <mxGeometry x="590" y="720" width="80" height="60" as="geometry" />
        </mxCell>
        <mxCell id="IC8Se40u6HLO76EEBxMK-38" value="" style="edgeStyle=orthogonalEdgeStyle;rounded=0;orthogonalLoop=1;jettySize=auto;html=1;" parent="1" source="IC8Se40u6HLO76EEBxMK-35" target="IC8Se40u6HLO76EEBxMK-37" edge="1">
          <mxGeometry relative="1" as="geometry" />
        </mxCell>
        <mxCell id="IC8Se40u6HLO76EEBxMK-35" value="&lt;font style=&quot;font-size: 20px;&quot;&gt;PaLM&lt;/font&gt;" style="rounded=1;whiteSpace=wrap;html=1;fillColor=#dae8fc;strokeColor=#6c8ebf;sketch=1;curveFitting=1;jiggle=2;" parent="1" vertex="1">
          <mxGeometry x="880" y="560" width="80" height="280" as="geometry" />
        </mxCell>
        <mxCell id="IC8Se40u6HLO76EEBxMK-37" value="&lt;font style=&quot;font-size: 20px;&quot;&gt;Text&lt;/font&gt;" style="rounded=1;whiteSpace=wrap;html=1;fillColor=#d5e8d4;strokeColor=#82b366;sketch=1;curveFitting=1;jiggle=2;" parent="1" vertex="1">
          <mxGeometry x="1005" y="670" width="75" height="60" as="geometry" />
        </mxCell>
        <mxCell id="IC8Se40u6HLO76EEBxMK-40" value="" style="edgeStyle=orthogonalEdgeStyle;rounded=0;orthogonalLoop=1;jettySize=auto;html=1;" parent="1" source="IC8Se40u6HLO76EEBxMK-39" target="IC8Se40u6HLO76EEBxMK-14" edge="1">
          <mxGeometry relative="1" as="geometry">
            <Array as="points">
              <mxPoint x="180" y="740" />
              <mxPoint x="180" y="670" />
            </Array>
          </mxGeometry>
        </mxCell>
        <mxCell id="IC8Se40u6HLO76EEBxMK-43" style="edgeStyle=orthogonalEdgeStyle;rounded=0;orthogonalLoop=1;jettySize=auto;html=1;entryX=0;entryY=0.5;entryDx=0;entryDy=0;" parent="1" source="IC8Se40u6HLO76EEBxMK-39" target="IC8Se40u6HLO76EEBxMK-41" edge="1">
          <mxGeometry relative="1" as="geometry">
            <Array as="points">
              <mxPoint x="180" y="740" />
              <mxPoint x="180" y="810" />
            </Array>
          </mxGeometry>
        </mxCell>
        <mxCell id="IC8Se40u6HLO76EEBxMK-39" value="&lt;font style=&quot;font-size: 20px;&quot;&gt;Multi-modal Sentences&lt;/font&gt;" style="rounded=1;whiteSpace=wrap;html=1;fillColor=#ffe6cc;strokeColor=#d79b00;sketch=1;curveFitting=1;jiggle=2;" parent="1" vertex="1">
          <mxGeometry x="-130" y="710" width="280" height="60" as="geometry" />
        </mxCell>
        <mxCell id="IC8Se40u6HLO76EEBxMK-45" style="edgeStyle=orthogonalEdgeStyle;rounded=0;orthogonalLoop=1;jettySize=auto;html=1;entryX=0;entryY=0.5;entryDx=0;entryDy=0;" parent="1" source="IC8Se40u6HLO76EEBxMK-41" target="IC8Se40u6HLO76EEBxMK-24" edge="1">
          <mxGeometry relative="1" as="geometry">
            <Array as="points">
              <mxPoint x="710" y="810" />
              <mxPoint x="710" y="700" />
            </Array>
          </mxGeometry>
        </mxCell>
        <mxCell id="IC8Se40u6HLO76EEBxMK-41" value="&lt;font style=&quot;font-size: 20px;&quot;&gt;Text&lt;/font&gt;" style="rounded=1;whiteSpace=wrap;html=1;fillColor=#ffe6cc;strokeColor=#d79b00;sketch=1;curveFitting=1;jiggle=2;" parent="1" vertex="1">
          <mxGeometry x="210" y="780" width="140" height="60" as="geometry" />
        </mxCell>
        <mxCell id="IC8Se40u6HLO76EEBxMK-48" value="&lt;font style=&quot;font-size: 20px;&quot;&gt;Input Data&lt;/font&gt;" style="rounded=1;whiteSpace=wrap;html=1;fillColor=#ffe6cc;strokeColor=#d79b00;sketch=1;curveFitting=1;jiggle=2;" parent="1" vertex="1">
          <mxGeometry x="-200" y="450" width="140" height="60" as="geometry" />
        </mxCell>
        <mxCell id="IC8Se40u6HLO76EEBxMK-49" value="&lt;font style=&quot;font-size: 20px;&quot;&gt;Model&lt;/font&gt;" style="rounded=1;whiteSpace=wrap;html=1;fillColor=#dae8fc;strokeColor=#6c8ebf;sketch=1;curveFitting=1;jiggle=2;" parent="1" vertex="1">
          <mxGeometry x="-30" y="450" width="140" height="60" as="geometry" />
        </mxCell>
        <mxCell id="IC8Se40u6HLO76EEBxMK-50" value="&lt;font style=&quot;font-size: 20px;&quot;&gt;Output Data&lt;/font&gt;" style="rounded=1;whiteSpace=wrap;html=1;fillColor=#d5e8d4;strokeColor=#82b366;sketch=1;curveFitting=1;jiggle=2;" parent="1" vertex="1">
          <mxGeometry x="140" y="450" width="140" height="60" as="geometry" />
        </mxCell>
        <mxCell id="IC8Se40u6HLO76EEBxMK-51" value="&lt;font style=&quot;font-size: 20px;&quot;&gt;PaLM-E&lt;/font&gt;" style="rounded=1;whiteSpace=wrap;html=1;sketch=1;curveFitting=1;jiggle=2;" parent="1" vertex="1">
          <mxGeometry x="-130" y="560" width="140" height="60" as="geometry" />
        </mxCell>
        <mxCell id="IC8Se40u6HLO76EEBxMK-52" value="" style="edgeStyle=orthogonalEdgeStyle;rounded=0;orthogonalLoop=1;jettySize=auto;html=1;" parent="1" source="IC8Se40u6HLO76EEBxMK-55" target="IC8Se40u6HLO76EEBxMK-59" edge="1">
          <mxGeometry relative="1" as="geometry" />
        </mxCell>
        <mxCell id="IC8Se40u6HLO76EEBxMK-53" style="edgeStyle=orthogonalEdgeStyle;rounded=0;orthogonalLoop=1;jettySize=auto;html=1;entryX=0;entryY=0.5;entryDx=0;entryDy=0;" parent="1" source="IC8Se40u6HLO76EEBxMK-55" target="IC8Se40u6HLO76EEBxMK-61" edge="1">
          <mxGeometry relative="1" as="geometry">
            <Array as="points">
              <mxPoint x="110" y="1070" />
              <mxPoint x="110" y="990" />
            </Array>
          </mxGeometry>
        </mxCell>
        <mxCell id="IC8Se40u6HLO76EEBxMK-54" style="edgeStyle=orthogonalEdgeStyle;rounded=0;orthogonalLoop=1;jettySize=auto;html=1;entryX=0;entryY=0.5;entryDx=0;entryDy=0;" parent="1" source="IC8Se40u6HLO76EEBxMK-55" edge="1">
          <mxGeometry relative="1" as="geometry">
            <mxPoint x="140" y="1150" as="targetPoint" />
            <Array as="points">
              <mxPoint x="110" y="1070" />
              <mxPoint x="110" y="1150" />
            </Array>
          </mxGeometry>
        </mxCell>
        <mxCell id="IC8Se40u6HLO76EEBxMK-55" value="&lt;font style=&quot;font-size: 20px;&quot;&gt;Observations&lt;/font&gt;" style="rounded=1;whiteSpace=wrap;html=1;fillColor=#ffe6cc;strokeColor=#d79b00;sketch=1;curveFitting=1;jiggle=2;" parent="1" vertex="1">
          <mxGeometry x="-120" y="1040" width="140" height="60" as="geometry" />
        </mxCell>
        <mxCell id="IC8Se40u6HLO76EEBxMK-92" value="" style="edgeStyle=orthogonalEdgeStyle;rounded=0;orthogonalLoop=1;jettySize=auto;html=1;" parent="1" source="IC8Se40u6HLO76EEBxMK-59" target="IC8Se40u6HLO76EEBxMK-91" edge="1">
          <mxGeometry relative="1" as="geometry" />
        </mxCell>
        <mxCell id="IC8Se40u6HLO76EEBxMK-59" value="&lt;font style=&quot;font-size: 20px;&quot;&gt;Odometry&lt;/font&gt;" style="rounded=1;whiteSpace=wrap;html=1;fillColor=#ffe6cc;strokeColor=#d79b00;sketch=1;curveFitting=1;jiggle=2;" parent="1" vertex="1">
          <mxGeometry x="140" y="1040" width="140" height="60" as="geometry" />
        </mxCell>
        <mxCell id="IC8Se40u6HLO76EEBxMK-90" value="" style="edgeStyle=orthogonalEdgeStyle;rounded=0;orthogonalLoop=1;jettySize=auto;html=1;" parent="1" source="IC8Se40u6HLO76EEBxMK-61" target="IC8Se40u6HLO76EEBxMK-89" edge="1">
          <mxGeometry relative="1" as="geometry" />
        </mxCell>
        <mxCell id="IC8Se40u6HLO76EEBxMK-61" value="&lt;font style=&quot;font-size: 20px;&quot;&gt;Image&lt;/font&gt;" style="rounded=1;whiteSpace=wrap;html=1;fillColor=#ffe6cc;strokeColor=#d79b00;sketch=1;curveFitting=1;jiggle=2;" parent="1" vertex="1">
          <mxGeometry x="140" y="960" width="140" height="60" as="geometry" />
        </mxCell>
        <mxCell id="IC8Se40u6HLO76EEBxMK-96" style="edgeStyle=orthogonalEdgeStyle;rounded=0;orthogonalLoop=1;jettySize=auto;html=1;entryX=0;entryY=0.5;entryDx=0;entryDy=0;" parent="1" source="IC8Se40u6HLO76EEBxMK-77" target="IC8Se40u6HLO76EEBxMK-95" edge="1">
          <mxGeometry relative="1" as="geometry" />
        </mxCell>
        <mxCell id="IC8Se40u6HLO76EEBxMK-77" value="&lt;font style=&quot;font-size: 20px;&quot;&gt;Actions&lt;/font&gt;" style="rounded=1;whiteSpace=wrap;html=1;fillColor=#ffe6cc;strokeColor=#d79b00;sketch=1;curveFitting=1;jiggle=2;" parent="1" vertex="1">
          <mxGeometry x="-120" y="1200" width="140" height="60" as="geometry" />
        </mxCell>
        <mxCell id="IC8Se40u6HLO76EEBxMK-78" value="&lt;font style=&quot;font-size: 20px;&quot;&gt;Control Transformer&lt;/font&gt;" style="rounded=1;whiteSpace=wrap;html=1;sketch=1;curveFitting=1;jiggle=2;" parent="1" vertex="1">
          <mxGeometry x="-120" y="960" width="200" height="60" as="geometry" />
        </mxCell>
        <mxCell id="IC8Se40u6HLO76EEBxMK-94" value="" style="edgeStyle=orthogonalEdgeStyle;rounded=0;orthogonalLoop=1;jettySize=auto;html=1;" parent="1" source="IC8Se40u6HLO76EEBxMK-79" target="IC8Se40u6HLO76EEBxMK-93" edge="1">
          <mxGeometry relative="1" as="geometry" />
        </mxCell>
        <mxCell id="IC8Se40u6HLO76EEBxMK-79" value="&lt;font style=&quot;font-size: 20px;&quot;&gt;Velocity&lt;/font&gt;" style="rounded=1;whiteSpace=wrap;html=1;fillColor=#ffe6cc;strokeColor=#d79b00;sketch=1;curveFitting=1;jiggle=2;" parent="1" vertex="1">
          <mxGeometry x="140" y="1120" width="140" height="60" as="geometry" />
        </mxCell>
        <mxCell id="IC8Se40u6HLO76EEBxMK-85" value="" style="edgeStyle=orthogonalEdgeStyle;rounded=0;orthogonalLoop=1;jettySize=auto;html=1;" parent="1" source="IC8Se40u6HLO76EEBxMK-86" target="IC8Se40u6HLO76EEBxMK-87" edge="1">
          <mxGeometry relative="1" as="geometry" />
        </mxCell>
        <mxCell id="IC8Se40u6HLO76EEBxMK-86" value="&lt;font style=&quot;font-size: 20px;&quot;&gt;CT&lt;/font&gt;" style="rounded=1;whiteSpace=wrap;html=1;fillColor=#dae8fc;strokeColor=#6c8ebf;sketch=1;curveFitting=1;jiggle=2;" parent="1" vertex="1">
          <mxGeometry x="550" y="960" width="80" height="300" as="geometry" />
        </mxCell>
        <mxCell id="IC8Se40u6HLO76EEBxMK-104" value="" style="edgeStyle=orthogonalEdgeStyle;rounded=0;orthogonalLoop=1;jettySize=auto;html=1;" parent="1" source="IC8Se40u6HLO76EEBxMK-87" target="IC8Se40u6HLO76EEBxMK-103" edge="1">
          <mxGeometry relative="1" as="geometry" />
        </mxCell>
        <mxCell id="IC8Se40u6HLO76EEBxMK-87" value="&lt;span style=&quot;font-size: 20px;&quot;&gt;Vectors&lt;/span&gt;" style="rounded=1;whiteSpace=wrap;html=1;fillColor=#d5e8d4;strokeColor=#82b366;sketch=1;curveFitting=1;jiggle=2;" parent="1" vertex="1">
          <mxGeometry x="660" y="1080" width="95" height="60" as="geometry" />
        </mxCell>
        <mxCell id="IC8Se40u6HLO76EEBxMK-98" value="" style="edgeStyle=orthogonalEdgeStyle;rounded=0;orthogonalLoop=1;jettySize=auto;html=1;" parent="1" source="IC8Se40u6HLO76EEBxMK-88" target="IC8Se40u6HLO76EEBxMK-86" edge="1">
          <mxGeometry relative="1" as="geometry" />
        </mxCell>
        <mxCell id="IC8Se40u6HLO76EEBxMK-88" value="&lt;font style=&quot;font-size: 20px;&quot;&gt;Tokens&lt;/font&gt;" style="rounded=1;whiteSpace=wrap;html=1;fillColor=#ffe6cc;strokeColor=#d79b00;sketch=1;curveFitting=1;jiggle=2;" parent="1" vertex="1">
          <mxGeometry x="440" y="960" width="80" height="300" as="geometry" />
        </mxCell>
        <mxCell id="IC8Se40u6HLO76EEBxMK-99" value="" style="edgeStyle=orthogonalEdgeStyle;rounded=0;orthogonalLoop=1;jettySize=auto;html=1;" parent="1" source="IC8Se40u6HLO76EEBxMK-89" target="IC8Se40u6HLO76EEBxMK-88" edge="1">
          <mxGeometry relative="1" as="geometry">
            <Array as="points">
              <mxPoint x="420" y="990" />
              <mxPoint x="420" y="1110" />
            </Array>
          </mxGeometry>
        </mxCell>
        <mxCell id="IC8Se40u6HLO76EEBxMK-89" value="&lt;font style=&quot;font-size: 20px;&quot;&gt;Tokenizer&lt;/font&gt;" style="rounded=1;whiteSpace=wrap;html=1;fillColor=#dae8fc;strokeColor=#6c8ebf;sketch=1;curveFitting=1;jiggle=2;" parent="1" vertex="1">
          <mxGeometry x="310" y="960" width="100" height="60" as="geometry" />
        </mxCell>
        <mxCell id="IC8Se40u6HLO76EEBxMK-100" value="" style="edgeStyle=orthogonalEdgeStyle;rounded=0;orthogonalLoop=1;jettySize=auto;html=1;" parent="1" source="IC8Se40u6HLO76EEBxMK-91" target="IC8Se40u6HLO76EEBxMK-88" edge="1">
          <mxGeometry relative="1" as="geometry">
            <Array as="points">
              <mxPoint x="420" y="1070" />
              <mxPoint x="420" y="1110" />
            </Array>
          </mxGeometry>
        </mxCell>
        <mxCell id="IC8Se40u6HLO76EEBxMK-91" value="&lt;font style=&quot;font-size: 20px;&quot;&gt;Tokenizer&lt;/font&gt;" style="rounded=1;whiteSpace=wrap;html=1;fillColor=#dae8fc;strokeColor=#6c8ebf;sketch=1;curveFitting=1;jiggle=2;" parent="1" vertex="1">
          <mxGeometry x="310" y="1040" width="100" height="60" as="geometry" />
        </mxCell>
        <mxCell id="IC8Se40u6HLO76EEBxMK-101" value="" style="edgeStyle=orthogonalEdgeStyle;rounded=0;orthogonalLoop=1;jettySize=auto;html=1;" parent="1" source="IC8Se40u6HLO76EEBxMK-93" target="IC8Se40u6HLO76EEBxMK-88" edge="1">
          <mxGeometry relative="1" as="geometry">
            <Array as="points">
              <mxPoint x="420" y="1150" />
              <mxPoint x="420" y="1110" />
            </Array>
          </mxGeometry>
        </mxCell>
        <mxCell id="IC8Se40u6HLO76EEBxMK-93" value="&lt;font style=&quot;font-size: 20px;&quot;&gt;Tokenizer&lt;/font&gt;" style="rounded=1;whiteSpace=wrap;html=1;fillColor=#dae8fc;strokeColor=#6c8ebf;sketch=1;curveFitting=1;jiggle=2;" parent="1" vertex="1">
          <mxGeometry x="310" y="1120" width="100" height="60" as="geometry" />
        </mxCell>
        <mxCell id="IC8Se40u6HLO76EEBxMK-102" value="" style="edgeStyle=orthogonalEdgeStyle;rounded=0;orthogonalLoop=1;jettySize=auto;html=1;" parent="1" source="IC8Se40u6HLO76EEBxMK-95" target="IC8Se40u6HLO76EEBxMK-88" edge="1">
          <mxGeometry relative="1" as="geometry">
            <Array as="points">
              <mxPoint x="420" y="1230" />
              <mxPoint x="420" y="1110" />
            </Array>
          </mxGeometry>
        </mxCell>
        <mxCell id="IC8Se40u6HLO76EEBxMK-95" value="&lt;font style=&quot;font-size: 20px;&quot;&gt;Tokenizer&lt;/font&gt;" style="rounded=1;whiteSpace=wrap;html=1;fillColor=#dae8fc;strokeColor=#6c8ebf;sketch=1;curveFitting=1;jiggle=2;" parent="1" vertex="1">
          <mxGeometry x="310" y="1200" width="100" height="60" as="geometry" />
        </mxCell>
        <mxCell id="IC8Se40u6HLO76EEBxMK-103" value="&lt;font style=&quot;font-size: 20px;&quot;&gt;RL&lt;/font&gt;" style="rounded=1;whiteSpace=wrap;html=1;fillColor=#dae8fc;strokeColor=#6c8ebf;sketch=1;curveFitting=1;jiggle=2;" parent="1" vertex="1">
          <mxGeometry x="780" y="1080" width="60" height="60" as="geometry" />
        </mxCell>
        <mxCell id="IC8Se40u6HLO76EEBxMK-133" value="" style="edgeStyle=orthogonalEdgeStyle;rounded=0;orthogonalLoop=1;jettySize=auto;html=1;" parent="1" target="IC8Se40u6HLO76EEBxMK-131" edge="1">
          <mxGeometry relative="1" as="geometry">
            <mxPoint x="180" y="1370" as="sourcePoint" />
          </mxGeometry>
        </mxCell>
        <mxCell id="IC8Se40u6HLO76EEBxMK-134" value="" style="edgeStyle=orthogonalEdgeStyle;rounded=0;orthogonalLoop=1;jettySize=auto;html=1;" parent="1" source="IC8Se40u6HLO76EEBxMK-114" target="IC8Se40u6HLO76EEBxMK-131" edge="1">
          <mxGeometry relative="1" as="geometry" />
        </mxCell>
        <mxCell id="IC8Se40u6HLO76EEBxMK-114" value="&lt;font style=&quot;font-size: 20px;&quot;&gt;Text (Instructions)&lt;/font&gt;" style="rounded=1;whiteSpace=wrap;html=1;fillColor=#ffe6cc;strokeColor=#d79b00;sketch=1;curveFitting=1;jiggle=2;" parent="1" vertex="1">
          <mxGeometry x="-120" y="1430" width="300" height="60" as="geometry" />
        </mxCell>
        <mxCell id="IC8Se40u6HLO76EEBxMK-115" value="&lt;font style=&quot;font-size: 20px;&quot;&gt;Robotic Transformer&lt;/font&gt;" style="rounded=1;whiteSpace=wrap;html=1;sketch=1;curveFitting=1;jiggle=2;" parent="1" vertex="1">
          <mxGeometry x="-120" y="1340" width="200" height="60" as="geometry" />
        </mxCell>
        <mxCell id="IC8Se40u6HLO76EEBxMK-146" value="" style="edgeStyle=orthogonalEdgeStyle;rounded=0;orthogonalLoop=1;jettySize=auto;html=1;" parent="1" source="IC8Se40u6HLO76EEBxMK-121" target="IC8Se40u6HLO76EEBxMK-145" edge="1">
          <mxGeometry relative="1" as="geometry" />
        </mxCell>
        <mxCell id="IC8Se40u6HLO76EEBxMK-148" style="edgeStyle=orthogonalEdgeStyle;rounded=0;orthogonalLoop=1;jettySize=auto;html=1;entryX=0;entryY=0.5;entryDx=0;entryDy=0;" parent="1" source="IC8Se40u6HLO76EEBxMK-121" target="IC8Se40u6HLO76EEBxMK-141" edge="1">
          <mxGeometry relative="1" as="geometry" />
        </mxCell>
        <mxCell id="IC8Se40u6HLO76EEBxMK-121" value="&lt;span style=&quot;font-size: 20px;&quot;&gt;Actions&lt;/span&gt;" style="rounded=1;whiteSpace=wrap;html=1;fillColor=#d5e8d4;strokeColor=#82b366;sketch=1;curveFitting=1;jiggle=2;" parent="1" vertex="1">
          <mxGeometry x="580" y="1385" width="95" height="60" as="geometry" />
        </mxCell>
        <mxCell id="IC8Se40u6HLO76EEBxMK-137" value="" style="edgeStyle=orthogonalEdgeStyle;rounded=0;orthogonalLoop=1;jettySize=auto;html=1;" parent="1" source="IC8Se40u6HLO76EEBxMK-131" target="IC8Se40u6HLO76EEBxMK-136" edge="1">
          <mxGeometry relative="1" as="geometry" />
        </mxCell>
        <mxCell id="IC8Se40u6HLO76EEBxMK-131" value="&lt;font style=&quot;font-size: 20px;&quot;&gt;Tokenizer&lt;/font&gt;" style="rounded=1;whiteSpace=wrap;html=1;fillColor=#dae8fc;strokeColor=#6c8ebf;sketch=1;curveFitting=1;jiggle=2;" parent="1" vertex="1">
          <mxGeometry x="220" y="1340" width="100" height="150" as="geometry" />
        </mxCell>
        <mxCell id="IC8Se40u6HLO76EEBxMK-139" value="" style="edgeStyle=orthogonalEdgeStyle;rounded=0;orthogonalLoop=1;jettySize=auto;html=1;" parent="1" source="IC8Se40u6HLO76EEBxMK-136" target="IC8Se40u6HLO76EEBxMK-138" edge="1">
          <mxGeometry relative="1" as="geometry" />
        </mxCell>
        <mxCell id="IC8Se40u6HLO76EEBxMK-136" value="&lt;font style=&quot;font-size: 20px;&quot;&gt;Tokens&lt;/font&gt;" style="rounded=1;whiteSpace=wrap;html=1;fillColor=#ffe6cc;strokeColor=#d79b00;sketch=1;curveFitting=1;jiggle=2;" parent="1" vertex="1">
          <mxGeometry x="340" y="1340" width="80" height="150" as="geometry" />
        </mxCell>
        <mxCell id="IC8Se40u6HLO76EEBxMK-140" value="" style="edgeStyle=orthogonalEdgeStyle;rounded=0;orthogonalLoop=1;jettySize=auto;html=1;" parent="1" source="IC8Se40u6HLO76EEBxMK-138" target="IC8Se40u6HLO76EEBxMK-121" edge="1">
          <mxGeometry relative="1" as="geometry" />
        </mxCell>
        <mxCell id="IC8Se40u6HLO76EEBxMK-138" value="&lt;font style=&quot;font-size: 20px;&quot;&gt;Transformer&lt;/font&gt;" style="rounded=1;whiteSpace=wrap;html=1;fillColor=#dae8fc;strokeColor=#6c8ebf;sketch=1;curveFitting=1;jiggle=2;" parent="1" vertex="1">
          <mxGeometry x="440" y="1340" width="120" height="150" as="geometry" />
        </mxCell>
        <mxCell id="IC8Se40u6HLO76EEBxMK-141" value="&lt;span style=&quot;font-size: 20px;&quot;&gt;Arm: Rotation, Translation, Gripper&lt;/span&gt;" style="rounded=1;whiteSpace=wrap;html=1;fillColor=#d5e8d4;strokeColor=#82b366;sketch=1;curveFitting=1;jiggle=2;" parent="1" vertex="1">
          <mxGeometry x="720" y="1340" width="330" height="60" as="geometry" />
        </mxCell>
        <mxCell id="IC8Se40u6HLO76EEBxMK-145" value="&lt;span style=&quot;font-size: 20px;&quot;&gt;Base: Position, Orientation&lt;/span&gt;" style="rounded=1;whiteSpace=wrap;html=1;fillColor=#d5e8d4;strokeColor=#82b366;sketch=1;curveFitting=1;jiggle=2;" parent="1" vertex="1">
          <mxGeometry x="720" y="1430" width="250" height="60" as="geometry" />
        </mxCell>
        <mxCell id="IC8Se40u6HLO76EEBxMK-149" value="&lt;span style=&quot;font-size: 20px;&quot;&gt;Mode&lt;/span&gt;" style="rounded=1;whiteSpace=wrap;html=1;fillColor=#d5e8d4;strokeColor=#82b366;sketch=1;curveFitting=1;jiggle=2;" parent="1" vertex="1">
          <mxGeometry x="980" y="1430" width="70" height="60" as="geometry" />
        </mxCell>
        <mxCell id="IC8Se40u6HLO76EEBxMK-150" value="&lt;span style=&quot;font-size: 20px;&quot;&gt;Images&lt;/span&gt;" style="rounded=1;whiteSpace=wrap;html=1;fillColor=#ffe6cc;strokeColor=#d79b00;sketch=1;curveFitting=1;jiggle=2;" parent="1" vertex="1">
          <mxGeometry x="90" y="1340" width="90" height="60" as="geometry" />
        </mxCell>
        <mxCell id="IC8Se40u6HLO76EEBxMK-164" value="" style="edgeStyle=orthogonalEdgeStyle;rounded=0;orthogonalLoop=1;jettySize=auto;html=1;" parent="1" source="IC8Se40u6HLO76EEBxMK-153" target="IC8Se40u6HLO76EEBxMK-163" edge="1">
          <mxGeometry relative="1" as="geometry" />
        </mxCell>
        <mxCell id="IC8Se40u6HLO76EEBxMK-172" value="" style="edgeStyle=orthogonalEdgeStyle;rounded=0;orthogonalLoop=1;jettySize=auto;html=1;" parent="1" source="IC8Se40u6HLO76EEBxMK-153" target="IC8Se40u6HLO76EEBxMK-166" edge="1">
          <mxGeometry relative="1" as="geometry" />
        </mxCell>
        <mxCell id="IC8Se40u6HLO76EEBxMK-153" value="&lt;font style=&quot;font-size: 20px;&quot;&gt;High-level Func Lib&lt;/font&gt;" style="rounded=1;whiteSpace=wrap;html=1;fillColor=#ffe6cc;strokeColor=#d79b00;sketch=1;curveFitting=1;jiggle=2;" parent="1" vertex="1">
          <mxGeometry x="81.88" y="1660" width="195" height="60" as="geometry" />
        </mxCell>
        <mxCell id="IC8Se40u6HLO76EEBxMK-154" value="&lt;font style=&quot;font-size: 20px;&quot;&gt;ChatGPT for Robotics&lt;/font&gt;" style="rounded=1;whiteSpace=wrap;html=1;sketch=1;curveFitting=1;jiggle=2;" parent="1" vertex="1">
          <mxGeometry x="-120" y="1580" width="205" height="60" as="geometry" />
        </mxCell>
        <mxCell id="IC8Se40u6HLO76EEBxMK-163" value="&lt;font style=&quot;font-size: 20px;&quot;&gt;Robotic APIs&lt;/font&gt;" style="rounded=1;whiteSpace=wrap;html=1;fillColor=#ffe6cc;strokeColor=#d79b00;sketch=1;curveFitting=1;jiggle=2;" parent="1" vertex="1">
          <mxGeometry x="-120" y="1660" width="140" height="60" as="geometry" />
        </mxCell>
        <mxCell id="IC8Se40u6HLO76EEBxMK-171" value="" style="edgeStyle=orthogonalEdgeStyle;rounded=0;orthogonalLoop=1;jettySize=auto;html=1;" parent="1" source="IC8Se40u6HLO76EEBxMK-165" target="IC8Se40u6HLO76EEBxMK-166" edge="1">
          <mxGeometry relative="1" as="geometry" />
        </mxCell>
        <mxCell id="IC8Se40u6HLO76EEBxMK-165" value="&lt;span style=&quot;font-size: 20px;&quot;&gt;Prompt (Objective)&lt;/span&gt;" style="rounded=1;whiteSpace=wrap;html=1;fillColor=#ffe6cc;strokeColor=#d79b00;sketch=1;curveFitting=1;jiggle=2;" parent="1" vertex="1">
          <mxGeometry x="95.63" y="1580" width="181.25" height="60" as="geometry" />
        </mxCell>
        <mxCell id="IC8Se40u6HLO76EEBxMK-170" value="" style="edgeStyle=orthogonalEdgeStyle;rounded=0;orthogonalLoop=1;jettySize=auto;html=1;" parent="1" source="IC8Se40u6HLO76EEBxMK-166" target="IC8Se40u6HLO76EEBxMK-169" edge="1">
          <mxGeometry relative="1" as="geometry" />
        </mxCell>
        <mxCell id="IC8Se40u6HLO76EEBxMK-166" value="&lt;font style=&quot;font-size: 20px;&quot;&gt;ChatGPT&lt;/font&gt;" style="rounded=1;whiteSpace=wrap;html=1;fillColor=#dae8fc;strokeColor=#6c8ebf;sketch=1;curveFitting=1;jiggle=2;" parent="1" vertex="1">
          <mxGeometry x="312.5" y="1580" width="100" height="140" as="geometry" />
        </mxCell>
        <mxCell id="IC8Se40u6HLO76EEBxMK-169" value="&lt;span style=&quot;font-size: 20px;&quot;&gt;Code (with High-level Func Lib)&lt;/span&gt;" style="rounded=1;whiteSpace=wrap;html=1;fillColor=#d5e8d4;strokeColor=#82b366;sketch=1;curveFitting=1;jiggle=2;" parent="1" vertex="1">
          <mxGeometry x="432.5" y="1620" width="180" height="60" as="geometry" />
        </mxCell>
        <mxCell id="IC8Se40u6HLO76EEBxMK-185" value="" style="edgeStyle=orthogonalEdgeStyle;rounded=0;orthogonalLoop=1;jettySize=auto;html=1;" parent="1" source="IC8Se40u6HLO76EEBxMK-175" target="IC8Se40u6HLO76EEBxMK-184" edge="1">
          <mxGeometry relative="1" as="geometry" />
        </mxCell>
        <mxCell id="IC8Se40u6HLO76EEBxMK-175" value="&lt;font style=&quot;font-size: 20px;&quot;&gt;Text (Nav Instruction)&lt;/font&gt;" style="rounded=1;whiteSpace=wrap;html=1;fillColor=#ffe6cc;strokeColor=#d79b00;sketch=1;curveFitting=1;jiggle=2;" parent="1" vertex="1">
          <mxGeometry x="-120" y="1880" width="255" height="60" as="geometry" />
        </mxCell>
        <mxCell id="IC8Se40u6HLO76EEBxMK-176" value="&lt;font style=&quot;font-size: 20px;&quot;&gt;LM-Nav&lt;/font&gt;" style="rounded=1;whiteSpace=wrap;html=1;sketch=1;curveFitting=1;jiggle=2;" parent="1" vertex="1">
          <mxGeometry x="-120" y="1800" width="90" height="60" as="geometry" />
        </mxCell>
        <mxCell id="IC8Se40u6HLO76EEBxMK-189" value="" style="edgeStyle=orthogonalEdgeStyle;rounded=0;orthogonalLoop=1;jettySize=auto;html=1;" parent="1" source="IC8Se40u6HLO76EEBxMK-179" target="IC8Se40u6HLO76EEBxMK-188" edge="1">
          <mxGeometry relative="1" as="geometry" />
        </mxCell>
        <mxCell id="IC8Se40u6HLO76EEBxMK-179" value="&lt;span style=&quot;font-size: 20px;&quot;&gt;Offline Images&lt;/span&gt;" style="rounded=1;whiteSpace=wrap;html=1;fillColor=#ffe6cc;strokeColor=#d79b00;sketch=1;curveFitting=1;jiggle=2;" parent="1" vertex="1">
          <mxGeometry x="-16.25" y="1800" width="146.25" height="60" as="geometry" />
        </mxCell>
        <mxCell id="IC8Se40u6HLO76EEBxMK-192" value="" style="edgeStyle=orthogonalEdgeStyle;rounded=0;orthogonalLoop=1;jettySize=auto;html=1;" parent="1" source="IC8Se40u6HLO76EEBxMK-183" target="IC8Se40u6HLO76EEBxMK-191" edge="1">
          <mxGeometry relative="1" as="geometry">
            <Array as="points">
              <mxPoint x="480" y="1830" />
              <mxPoint x="480" y="1870" />
            </Array>
          </mxGeometry>
        </mxCell>
        <mxCell id="IC8Se40u6HLO76EEBxMK-183" value="&lt;span style=&quot;font-size: 20px;&quot;&gt;Topological Graph&lt;/span&gt;" style="rounded=1;whiteSpace=wrap;html=1;fillColor=#ffe6cc;strokeColor=#d79b00;sketch=1;curveFitting=1;jiggle=2;" parent="1" vertex="1">
          <mxGeometry x="281.25" y="1800" width="181.25" height="60" as="geometry" />
        </mxCell>
        <mxCell id="IC8Se40u6HLO76EEBxMK-187" value="" style="edgeStyle=orthogonalEdgeStyle;rounded=0;orthogonalLoop=1;jettySize=auto;html=1;" parent="1" source="IC8Se40u6HLO76EEBxMK-184" target="IC8Se40u6HLO76EEBxMK-186" edge="1">
          <mxGeometry relative="1" as="geometry" />
        </mxCell>
        <mxCell id="IC8Se40u6HLO76EEBxMK-184" value="&lt;font style=&quot;font-size: 20px;&quot;&gt;GPT-3&lt;/font&gt;" style="rounded=1;whiteSpace=wrap;html=1;fillColor=#dae8fc;strokeColor=#6c8ebf;sketch=1;curveFitting=1;jiggle=2;" parent="1" vertex="1">
          <mxGeometry x="162.5" y="1880" width="90" height="60" as="geometry" />
        </mxCell>
        <mxCell id="IC8Se40u6HLO76EEBxMK-193" value="" style="edgeStyle=orthogonalEdgeStyle;rounded=0;orthogonalLoop=1;jettySize=auto;html=1;" parent="1" source="IC8Se40u6HLO76EEBxMK-186" target="IC8Se40u6HLO76EEBxMK-191" edge="1">
          <mxGeometry relative="1" as="geometry">
            <Array as="points">
              <mxPoint x="480" y="1910" />
              <mxPoint x="480" y="1870" />
            </Array>
          </mxGeometry>
        </mxCell>
        <mxCell id="IC8Se40u6HLO76EEBxMK-186" value="&lt;font style=&quot;font-size: 20px;&quot;&gt;Text (Landmarks)&lt;/font&gt;" style="rounded=1;whiteSpace=wrap;html=1;fillColor=#ffe6cc;strokeColor=#d79b00;sketch=1;curveFitting=1;jiggle=2;" parent="1" vertex="1">
          <mxGeometry x="281.25" y="1880" width="178.75" height="60" as="geometry" />
        </mxCell>
        <mxCell id="IC8Se40u6HLO76EEBxMK-190" value="" style="edgeStyle=orthogonalEdgeStyle;rounded=0;orthogonalLoop=1;jettySize=auto;html=1;" parent="1" source="IC8Se40u6HLO76EEBxMK-188" target="IC8Se40u6HLO76EEBxMK-183" edge="1">
          <mxGeometry relative="1" as="geometry" />
        </mxCell>
        <mxCell id="IC8Se40u6HLO76EEBxMK-188" value="&lt;span style=&quot;font-size: 20px;&quot;&gt;VNM&lt;/span&gt;" style="rounded=1;whiteSpace=wrap;html=1;fillColor=#dae8fc;strokeColor=#6c8ebf;sketch=1;curveFitting=1;jiggle=2;" parent="1" vertex="1">
          <mxGeometry x="160" y="1800" width="90" height="60" as="geometry" />
        </mxCell>
        <mxCell id="IC8Se40u6HLO76EEBxMK-196" value="" style="edgeStyle=orthogonalEdgeStyle;rounded=0;orthogonalLoop=1;jettySize=auto;html=1;" parent="1" source="IC8Se40u6HLO76EEBxMK-191" target="IC8Se40u6HLO76EEBxMK-195" edge="1">
          <mxGeometry relative="1" as="geometry" />
        </mxCell>
        <mxCell id="IC8Se40u6HLO76EEBxMK-191" value="&lt;span style=&quot;font-size: 20px;&quot;&gt;CLIP-ViT&lt;/span&gt;" style="rounded=1;whiteSpace=wrap;html=1;fillColor=#dae8fc;strokeColor=#6c8ebf;sketch=1;curveFitting=1;jiggle=2;" parent="1" vertex="1">
          <mxGeometry x="500" y="1800" width="90" height="140" as="geometry" />
        </mxCell>
        <mxCell id="IC8Se40u6HLO76EEBxMK-200" value="" style="edgeStyle=orthogonalEdgeStyle;rounded=0;orthogonalLoop=1;jettySize=auto;html=1;" parent="1" source="IC8Se40u6HLO76EEBxMK-195" target="IC8Se40u6HLO76EEBxMK-198" edge="1">
          <mxGeometry relative="1" as="geometry" />
        </mxCell>
        <mxCell id="IC8Se40u6HLO76EEBxMK-195" value="&lt;span style=&quot;font-size: 20px;&quot;&gt;Graph Trajectory (Images)&lt;/span&gt;" style="rounded=1;whiteSpace=wrap;html=1;fillColor=#d5e8d4;strokeColor=#82b366;sketch=1;curveFitting=1;jiggle=2;" parent="1" vertex="1">
          <mxGeometry x="630" y="1880" width="180" height="60" as="geometry" />
        </mxCell>
        <mxCell id="IC8Se40u6HLO76EEBxMK-199" value="" style="edgeStyle=orthogonalEdgeStyle;rounded=0;orthogonalLoop=1;jettySize=auto;html=1;" parent="1" source="IC8Se40u6HLO76EEBxMK-197" target="IC8Se40u6HLO76EEBxMK-198" edge="1">
          <mxGeometry relative="1" as="geometry" />
        </mxCell>
        <mxCell id="IC8Se40u6HLO76EEBxMK-197" value="&lt;span style=&quot;font-size: 20px;&quot;&gt;Current Image&lt;/span&gt;" style="rounded=1;whiteSpace=wrap;html=1;fillColor=#d5e8d4;strokeColor=#82b366;sketch=1;curveFitting=1;jiggle=2;" parent="1" vertex="1">
          <mxGeometry x="630" y="1800" width="180" height="60" as="geometry" />
        </mxCell>
        <mxCell id="IC8Se40u6HLO76EEBxMK-202" value="" style="edgeStyle=orthogonalEdgeStyle;rounded=0;orthogonalLoop=1;jettySize=auto;html=1;" parent="1" source="IC8Se40u6HLO76EEBxMK-198" target="IC8Se40u6HLO76EEBxMK-201" edge="1">
          <mxGeometry relative="1" as="geometry" />
        </mxCell>
        <mxCell id="IC8Se40u6HLO76EEBxMK-198" value="&lt;span style=&quot;font-size: 20px;&quot;&gt;VNM&lt;/span&gt;" style="rounded=1;whiteSpace=wrap;html=1;fillColor=#dae8fc;strokeColor=#6c8ebf;sketch=1;curveFitting=1;jiggle=2;" parent="1" vertex="1">
          <mxGeometry x="855" y="1800" width="90" height="140" as="geometry" />
        </mxCell>
        <mxCell id="IC8Se40u6HLO76EEBxMK-201" value="&lt;span style=&quot;font-size: 20px;&quot;&gt;Relative Pose&lt;/span&gt;" style="rounded=1;whiteSpace=wrap;html=1;fillColor=#d5e8d4;strokeColor=#82b366;sketch=1;curveFitting=1;jiggle=2;" parent="1" vertex="1">
          <mxGeometry x="980" y="1840" width="140" height="60" as="geometry" />
        </mxCell>
        <mxCell id="kDWZ8tuxKQJgS3sRpTLx-17" value="" style="edgeStyle=orthogonalEdgeStyle;rounded=0;orthogonalLoop=1;jettySize=auto;html=1;" parent="1" source="kDWZ8tuxKQJgS3sRpTLx-3" target="kDWZ8tuxKQJgS3sRpTLx-15" edge="1">
          <mxGeometry relative="1" as="geometry" />
        </mxCell>
        <mxCell id="kDWZ8tuxKQJgS3sRpTLx-3" value="&lt;span style=&quot;font-size: 20px;&quot;&gt;Object Images&lt;/span&gt;" style="rounded=1;whiteSpace=wrap;html=1;fillColor=#ffe6cc;strokeColor=#d79b00;sketch=1;curveFitting=1;jiggle=2;" parent="1" vertex="1">
          <mxGeometry x="105.63" y="2260" width="144.37" height="60" as="geometry" />
        </mxCell>
        <mxCell id="kDWZ8tuxKQJgS3sRpTLx-4" value="&lt;font style=&quot;font-size: 20px;&quot;&gt;VIMA&lt;/font&gt;" style="rounded=1;whiteSpace=wrap;html=1;sketch=1;curveFitting=1;jiggle=2;" parent="1" vertex="1">
          <mxGeometry x="-60" y="2180" width="120" height="60" as="geometry" />
        </mxCell>
        <mxCell id="kDWZ8tuxKQJgS3sRpTLx-16" value="" style="edgeStyle=orthogonalEdgeStyle;rounded=0;orthogonalLoop=1;jettySize=auto;html=1;" parent="1" source="kDWZ8tuxKQJgS3sRpTLx-7" target="kDWZ8tuxKQJgS3sRpTLx-11" edge="1">
          <mxGeometry relative="1" as="geometry" />
        </mxCell>
        <mxCell id="kDWZ8tuxKQJgS3sRpTLx-7" value="&lt;span style=&quot;font-size: 20px;&quot;&gt;Text&lt;/span&gt;" style="rounded=1;whiteSpace=wrap;html=1;fillColor=#ffe6cc;strokeColor=#d79b00;sketch=1;curveFitting=1;jiggle=2;" parent="1" vertex="1">
          <mxGeometry x="105.63" y="2180" width="144.37" height="60" as="geometry" />
        </mxCell>
        <mxCell id="kDWZ8tuxKQJgS3sRpTLx-10" value="&lt;span style=&quot;font-size: 20px;&quot;&gt;Actions (Poses)&lt;/span&gt;" style="rounded=1;whiteSpace=wrap;html=1;fillColor=#d5e8d4;strokeColor=#82b366;sketch=1;curveFitting=1;jiggle=2;" parent="1" vertex="1">
          <mxGeometry x="640" y="2220" width="180" height="60" as="geometry" />
        </mxCell>
        <mxCell id="kDWZ8tuxKQJgS3sRpTLx-19" value="" style="edgeStyle=orthogonalEdgeStyle;rounded=0;orthogonalLoop=1;jettySize=auto;html=1;" parent="1" source="kDWZ8tuxKQJgS3sRpTLx-11" target="kDWZ8tuxKQJgS3sRpTLx-18" edge="1">
          <mxGeometry relative="1" as="geometry" />
        </mxCell>
        <mxCell id="kDWZ8tuxKQJgS3sRpTLx-11" value="&lt;span style=&quot;font-size: 20px;&quot;&gt;LLM&lt;/span&gt;" style="rounded=1;whiteSpace=wrap;html=1;fillColor=#dae8fc;strokeColor=#6c8ebf;sketch=1;curveFitting=1;jiggle=2;" parent="1" vertex="1">
          <mxGeometry x="270" y="2180" width="90" height="60" as="geometry" />
        </mxCell>
        <mxCell id="kDWZ8tuxKQJgS3sRpTLx-13" value="" style="edgeStyle=orthogonalEdgeStyle;rounded=0;orthogonalLoop=1;jettySize=auto;html=1;" parent="1" source="kDWZ8tuxKQJgS3sRpTLx-12" target="kDWZ8tuxKQJgS3sRpTLx-7" edge="1">
          <mxGeometry relative="1" as="geometry">
            <Array as="points">
              <mxPoint x="80" y="2290" />
              <mxPoint x="80" y="2210" />
            </Array>
          </mxGeometry>
        </mxCell>
        <mxCell id="kDWZ8tuxKQJgS3sRpTLx-14" style="edgeStyle=orthogonalEdgeStyle;rounded=0;orthogonalLoop=1;jettySize=auto;html=1;entryX=0;entryY=0.5;entryDx=0;entryDy=0;" parent="1" source="kDWZ8tuxKQJgS3sRpTLx-12" target="kDWZ8tuxKQJgS3sRpTLx-3" edge="1">
          <mxGeometry relative="1" as="geometry">
            <Array as="points">
              <mxPoint x="90" y="2290" />
              <mxPoint x="90" y="2290" />
            </Array>
          </mxGeometry>
        </mxCell>
        <mxCell id="kDWZ8tuxKQJgS3sRpTLx-12" value="&lt;span style=&quot;font-size: 20px;&quot;&gt;Multi-modal Sentences&lt;/span&gt;" style="rounded=1;whiteSpace=wrap;html=1;fillColor=#ffe6cc;strokeColor=#d79b00;sketch=1;curveFitting=1;jiggle=2;" parent="1" vertex="1">
          <mxGeometry x="-60" y="2260" width="120" height="60" as="geometry" />
        </mxCell>
        <mxCell id="kDWZ8tuxKQJgS3sRpTLx-21" value="" style="edgeStyle=orthogonalEdgeStyle;rounded=0;orthogonalLoop=1;jettySize=auto;html=1;" parent="1" source="kDWZ8tuxKQJgS3sRpTLx-15" target="kDWZ8tuxKQJgS3sRpTLx-20" edge="1">
          <mxGeometry relative="1" as="geometry" />
        </mxCell>
        <mxCell id="kDWZ8tuxKQJgS3sRpTLx-15" value="&lt;span style=&quot;font-size: 20px;&quot;&gt;ViT&lt;/span&gt;" style="rounded=1;whiteSpace=wrap;html=1;fillColor=#dae8fc;strokeColor=#6c8ebf;sketch=1;curveFitting=1;jiggle=2;" parent="1" vertex="1">
          <mxGeometry x="270" y="2260" width="90" height="60" as="geometry" />
        </mxCell>
        <mxCell id="kDWZ8tuxKQJgS3sRpTLx-23" value="" style="edgeStyle=orthogonalEdgeStyle;rounded=0;orthogonalLoop=1;jettySize=auto;html=1;" parent="1" source="kDWZ8tuxKQJgS3sRpTLx-18" target="kDWZ8tuxKQJgS3sRpTLx-22" edge="1">
          <mxGeometry relative="1" as="geometry" />
        </mxCell>
        <mxCell id="kDWZ8tuxKQJgS3sRpTLx-18" value="&lt;span style=&quot;font-size: 20px;&quot;&gt;Tokens&lt;/span&gt;" style="rounded=1;whiteSpace=wrap;html=1;fillColor=#ffe6cc;strokeColor=#d79b00;sketch=1;curveFitting=1;jiggle=2;" parent="1" vertex="1">
          <mxGeometry x="390" y="2180" width="90" height="60" as="geometry" />
        </mxCell>
        <mxCell id="kDWZ8tuxKQJgS3sRpTLx-24" value="" style="edgeStyle=orthogonalEdgeStyle;rounded=0;orthogonalLoop=1;jettySize=auto;html=1;" parent="1" source="kDWZ8tuxKQJgS3sRpTLx-20" target="kDWZ8tuxKQJgS3sRpTLx-22" edge="1">
          <mxGeometry relative="1" as="geometry" />
        </mxCell>
        <mxCell id="kDWZ8tuxKQJgS3sRpTLx-20" value="&lt;span style=&quot;font-size: 20px;&quot;&gt;Tokens&lt;/span&gt;" style="rounded=1;whiteSpace=wrap;html=1;fillColor=#ffe6cc;strokeColor=#d79b00;sketch=1;curveFitting=1;jiggle=2;" parent="1" vertex="1">
          <mxGeometry x="390" y="2260" width="90" height="60" as="geometry" />
        </mxCell>
        <mxCell id="kDWZ8tuxKQJgS3sRpTLx-25" value="" style="edgeStyle=orthogonalEdgeStyle;rounded=0;orthogonalLoop=1;jettySize=auto;html=1;" parent="1" source="kDWZ8tuxKQJgS3sRpTLx-22" target="kDWZ8tuxKQJgS3sRpTLx-10" edge="1">
          <mxGeometry relative="1" as="geometry" />
        </mxCell>
        <mxCell id="kDWZ8tuxKQJgS3sRpTLx-22" value="&lt;span style=&quot;font-size: 20px;&quot;&gt;LLM&lt;/span&gt;" style="rounded=1;whiteSpace=wrap;html=1;fillColor=#dae8fc;strokeColor=#6c8ebf;sketch=1;curveFitting=1;jiggle=2;" parent="1" vertex="1">
          <mxGeometry x="522.5" y="2180" width="90" height="140" as="geometry" />
        </mxCell>
        <mxCell id="O2Wm7bWVQQxzF7gEb7x0-9" value="" style="edgeStyle=orthogonalEdgeStyle;rounded=0;orthogonalLoop=1;jettySize=auto;html=1;" edge="1" parent="1" source="O2Wm7bWVQQxzF7gEb7x0-3" target="O2Wm7bWVQQxzF7gEb7x0-7">
          <mxGeometry relative="1" as="geometry" />
        </mxCell>
        <mxCell id="O2Wm7bWVQQxzF7gEb7x0-3" value="&lt;font style=&quot;font-size: 20px;&quot;&gt;&lt;b&gt;感知&lt;/b&gt;&lt;br&gt;识别&amp;nbsp; 定位&lt;br&gt;&lt;/font&gt;" style="rounded=1;whiteSpace=wrap;html=1;sketch=1;curveFitting=1;jiggle=2;" vertex="1" parent="1">
          <mxGeometry y="2410" width="140" height="60" as="geometry" />
        </mxCell>
        <mxCell id="O2Wm7bWVQQxzF7gEb7x0-10" value="" style="edgeStyle=orthogonalEdgeStyle;rounded=0;orthogonalLoop=1;jettySize=auto;html=1;" edge="1" parent="1" source="O2Wm7bWVQQxzF7gEb7x0-7" target="O2Wm7bWVQQxzF7gEb7x0-8">
          <mxGeometry relative="1" as="geometry" />
        </mxCell>
        <mxCell id="O2Wm7bWVQQxzF7gEb7x0-7" value="&lt;font style=&quot;font-size: 20px;&quot;&gt;&lt;b&gt;规划&lt;/b&gt;&lt;br&gt;任务 路径&lt;br&gt;&lt;/font&gt;" style="rounded=1;whiteSpace=wrap;html=1;sketch=1;curveFitting=1;jiggle=2;" vertex="1" parent="1">
          <mxGeometry x="180" y="2410" width="140" height="60" as="geometry" />
        </mxCell>
        <mxCell id="O2Wm7bWVQQxzF7gEb7x0-8" value="&lt;font style=&quot;font-size: 20px;&quot;&gt;&lt;b&gt;控制&lt;/b&gt;&lt;br&gt;移动 执行&lt;br&gt;&lt;/font&gt;" style="rounded=1;whiteSpace=wrap;html=1;sketch=1;curveFitting=1;jiggle=2;" vertex="1" parent="1">
          <mxGeometry x="360" y="2410" width="140" height="60" as="geometry" />
        </mxCell>
        <mxCell id="O2Wm7bWVQQxzF7gEb7x0-14" style="edgeStyle=orthogonalEdgeStyle;rounded=0;orthogonalLoop=1;jettySize=auto;html=1;" edge="1" parent="1" source="O2Wm7bWVQQxzF7gEb7x0-11">
          <mxGeometry relative="1" as="geometry">
            <mxPoint y="2545" as="targetPoint" />
          </mxGeometry>
        </mxCell>
        <mxCell id="O2Wm7bWVQQxzF7gEb7x0-15" style="edgeStyle=orthogonalEdgeStyle;rounded=0;orthogonalLoop=1;jettySize=auto;html=1;" edge="1" parent="1" source="O2Wm7bWVQQxzF7gEb7x0-11">
          <mxGeometry relative="1" as="geometry">
            <mxPoint x="320" y="2545" as="targetPoint" />
          </mxGeometry>
        </mxCell>
        <mxCell id="O2Wm7bWVQQxzF7gEb7x0-11" value="&lt;font style=&quot;font-size: 20px;&quot;&gt;PaLM-E&lt;/font&gt;" style="rounded=1;whiteSpace=wrap;html=1;sketch=1;curveFitting=1;jiggle=2;" vertex="1" parent="1">
          <mxGeometry x="115" y="2530" width="95" height="30" as="geometry" />
        </mxCell>
        <mxCell id="O2Wm7bWVQQxzF7gEb7x0-18" style="edgeStyle=orthogonalEdgeStyle;rounded=0;orthogonalLoop=1;jettySize=auto;html=1;" edge="1" parent="1" source="O2Wm7bWVQQxzF7gEb7x0-16">
          <mxGeometry relative="1" as="geometry">
            <mxPoint x="320" y="2625" as="targetPoint" />
          </mxGeometry>
        </mxCell>
        <mxCell id="O2Wm7bWVQQxzF7gEb7x0-19" style="edgeStyle=orthogonalEdgeStyle;rounded=0;orthogonalLoop=1;jettySize=auto;html=1;" edge="1" parent="1" source="O2Wm7bWVQQxzF7gEb7x0-16">
          <mxGeometry relative="1" as="geometry">
            <mxPoint x="500" y="2625" as="targetPoint" />
          </mxGeometry>
        </mxCell>
        <mxCell id="O2Wm7bWVQQxzF7gEb7x0-16" value="&lt;font style=&quot;font-size: 20px;&quot;&gt;RT-1&lt;/font&gt;" style="rounded=1;whiteSpace=wrap;html=1;sketch=1;curveFitting=1;jiggle=2;" vertex="1" parent="1">
          <mxGeometry x="367.5" y="2610" width="95" height="30" as="geometry" />
        </mxCell>
        <mxCell id="O2Wm7bWVQQxzF7gEb7x0-23" style="edgeStyle=orthogonalEdgeStyle;rounded=0;orthogonalLoop=1;jettySize=auto;html=1;" edge="1" parent="1" source="O2Wm7bWVQQxzF7gEb7x0-20">
          <mxGeometry relative="1" as="geometry">
            <mxPoint x="500" y="2705" as="targetPoint" />
          </mxGeometry>
        </mxCell>
        <mxCell id="O2Wm7bWVQQxzF7gEb7x0-24" style="edgeStyle=orthogonalEdgeStyle;rounded=0;orthogonalLoop=1;jettySize=auto;html=1;" edge="1" parent="1" source="O2Wm7bWVQQxzF7gEb7x0-20">
          <mxGeometry relative="1" as="geometry">
            <mxPoint x="190" y="2705" as="targetPoint" />
          </mxGeometry>
        </mxCell>
        <mxCell id="O2Wm7bWVQQxzF7gEb7x0-20" value="&lt;span style=&quot;font-size: 20px;&quot;&gt;Control Transformer&lt;/span&gt;" style="rounded=1;whiteSpace=wrap;html=1;sketch=1;curveFitting=1;jiggle=2;" vertex="1" parent="1">
          <mxGeometry x="247.5" y="2690" width="185" height="30" as="geometry" />
        </mxCell>
        <mxCell id="O2Wm7bWVQQxzF7gEb7x0-26" style="edgeStyle=orthogonalEdgeStyle;rounded=0;orthogonalLoop=1;jettySize=auto;html=1;" edge="1" parent="1" source="O2Wm7bWVQQxzF7gEb7x0-25">
          <mxGeometry relative="1" as="geometry">
            <mxPoint x="-2.2737367544323206e-13" y="2785" as="targetPoint" />
          </mxGeometry>
        </mxCell>
        <mxCell id="O2Wm7bWVQQxzF7gEb7x0-27" style="edgeStyle=orthogonalEdgeStyle;rounded=0;orthogonalLoop=1;jettySize=auto;html=1;" edge="1" parent="1" source="O2Wm7bWVQQxzF7gEb7x0-25">
          <mxGeometry relative="1" as="geometry">
            <mxPoint x="500" y="2785" as="targetPoint" />
          </mxGeometry>
        </mxCell>
        <mxCell id="O2Wm7bWVQQxzF7gEb7x0-25" value="&lt;font style=&quot;font-size: 20px;&quot;&gt;LM-Nav&lt;/font&gt;" style="rounded=1;whiteSpace=wrap;html=1;sketch=1;curveFitting=1;jiggle=2;" vertex="1" parent="1">
          <mxGeometry x="202.5" y="2770" width="95" height="30" as="geometry" />
        </mxCell>
      </root>
    </mxGraphModel>
  </diagram>
</mxfile>
